<svg width="0" height="0" style="position:absolute">
    <symbol id="icon-close-icon" viewBox="0 0 24 24">
        <path d="M19 6.41L17.59 5 12 10.59 6.41 5 5 6.41 10.59 12 5 17.59 6.41 19 12 13.41 17.59 19 19 17.59 13.41 12z"/>
    </symbol>

    <symbol id="icon-favorite" viewBox="0 0 24 24">
        <path d="M0 0h24v24H0z" fill="none"></path>
        <path d="M12 21.35l-1.45-1.32C5.4 15.36 2 12.28 2 8.5 2 5.42 4.42 3 7.5 3c1.74 0 3.41.81 4.5 2.09C13.09 3.81 14.76 3 16.5 3 19.58 3 22 5.42 22 8.5c0 3.78-3.4 6.86-8.55 11.54L12 21.35z"></path>
    </symbol>

    <symbol id="icon-github" viewBox="0 0 20 20">
        <path d="M10 0C4.5 0 0 4.5 0 10c0 4.4 2.9 8.2 6.8 9.5.5.1.7-.2.7-.5v-1.9c-2.5.5-3.2-.6-3.4-1.1-.1-.3-.6-1.2-1-1.4-.4-.2-.9-.6 0-.7.8 0 1.3.7 1.5 1 .9 1.5 2.4 1.1 3 .9.1-.6.4-1.1.6-1.3-2.2-.3-4.6-1.2-4.6-5 0-1.1.4-2 1-2.7 0-.3-.4-1.3.2-2.7 0 0 .8-.3 2.8 1 .7-.2 1.6-.3 2.4-.3s1.7.1 2.5.3c1.9-1.3 2.8-1 2.8-1 .5 1.4.2 2.4.1 2.7.6.7 1 1.6 1 2.7 0 3.8-2.3 4.7-4.6 4.9.4.3.7.9.7 1.9v2.8c0 .3.2.6.7.5 4-1.3 6.8-5.1 6.8-9.5C20 4.5 15.5 0 10 0z"></path>
    </symbol>

</svg>